<svg width="259" height="50" viewBox="0 0 259 50" fill="none" xmlns="http://www.w3.org/2000/svg">
<g clip-path="url(#clip0_1544_160)">
<path d="M47.226 39.838C47.226 40.418 47.4193 40.882 47.806 41.23L51.634 44.884V45H32.32V44.884L36.206 41.23C36.554 40.882 36.728 40.418 36.728 39.838V16.522C36.728 15.362 36.786 14.202 36.902 13.042L23.794 45.464H23.678L10.106 15.652C9.526 14.4533 9.15867 13.6027 9.004 13.1V35.256C9.004 35.836 9.25533 36.474 9.758 37.17L15.616 44.884V45H1.174V44.884L7.032 37.17C7.53467 36.474 7.786 35.836 7.786 35.256V12.288C7.786 11.592 7.612 11.0313 7.264 10.606L2.508 4.342V4.226H16.37L28.492 30.674L39.164 4.226H51.634V4.342L47.806 8.576C47.4193 8.96267 47.226 9.446 47.226 10.026V39.838ZM80.0567 29.34H62.6567V29.456C62.6567 33.0133 63.4301 35.6813 64.9767 37.46C66.5234 39.2 68.5147 40.07 70.9507 40.07C75.0494 40.07 77.9881 38.2913 79.7667 34.734H79.8827C78.4134 41.8873 74.1407 45.464 67.0647 45.464C63.0821 45.464 59.7181 44.2267 56.9727 41.752C54.2274 39.2773 52.8547 35.6427 52.8547 30.848C52.8547 25.7827 54.2274 22.0127 56.9727 19.538C59.7181 17.0633 63.1981 15.826 67.4127 15.826C69.0367 15.826 70.5641 16.0387 71.9947 16.464C73.4254 16.8893 74.7594 17.5467 75.9967 18.436C77.2727 19.3253 78.2781 20.6013 79.0127 22.264C79.7474 23.888 80.1147 25.8213 80.1147 28.064C80.1147 28.4507 80.0954 28.876 80.0567 29.34ZM67.2967 16.928C65.7887 16.928 64.6481 17.8173 63.8747 19.596C63.1014 21.336 62.6954 24.236 62.6567 28.296H71.1827C71.2214 27.7933 71.2407 27.2133 71.2407 26.556C71.2407 22.96 70.8927 20.466 70.1967 19.074C69.5394 17.6433 68.5727 16.928 67.2967 16.928ZM112.396 2.718V40.65C112.396 41.2687 112.57 41.7327 112.918 42.042L115.818 44.884V45H102.942V39.548C101.241 43.492 98.3989 45.464 94.4163 45.464C91.0136 45.464 88.2489 44.1687 86.1223 41.578C84.0343 38.9873 82.9903 35.372 82.9903 30.732C82.9903 26.2853 84.1503 22.6893 86.4703 19.944C88.8289 17.1987 91.8256 15.826 95.4603 15.826C99.0563 15.826 101.55 17.3727 102.942 20.466V8.46C102.942 7.84133 102.749 7.358 102.362 7.01L99.5783 4.342V4.226L112.396 2.718ZM98.8823 41.114C100.468 41.114 101.821 40.3793 102.942 38.91V20.988C102.014 19.7893 100.758 19.19 99.1723 19.19C97.3936 19.19 95.9243 20.0987 94.7643 21.916C93.6043 23.6947 93.0243 26.5367 93.0243 30.442C93.0243 34.154 93.5463 36.8607 94.5903 38.562C95.6729 40.2633 97.1036 41.114 98.8823 41.114Z" fill="black"/>
<path d="M166.608 28.064C166.608 29.572 166.569 31.9113 166.492 35.082C166.453 38.2527 166.434 40.1667 166.434 40.824C166.434 41.404 166.627 41.868 167.014 42.216L169.856 44.884V45H153.616V44.884L156.342 42.216C156.728 41.8293 156.922 41.3847 156.922 40.882C156.922 40.7273 156.941 39.0453 156.98 35.836C157.057 32.6267 157.096 30.4807 157.096 29.398C157.096 26.498 156.767 24.3133 156.11 22.844C155.491 21.3747 154.331 20.64 152.63 20.64C150.851 20.64 149.324 21.4713 148.048 23.134C148.396 24.6033 148.57 26.2467 148.57 28.064C148.57 29.456 148.531 31.776 148.454 35.024C148.415 38.2333 148.396 40.1667 148.396 40.824C148.396 41.404 148.57 41.868 148.918 42.216L151.818 44.884V45H135.52V44.884L138.304 42.216C138.652 41.868 138.826 41.4233 138.826 40.882C138.826 40.766 138.845 39.1033 138.884 35.894C138.961 32.646 139 30.4807 139 29.398C139 26.498 138.69 24.3133 138.072 22.844C137.453 21.3747 136.293 20.64 134.592 20.64C132.89 20.64 131.46 21.4907 130.3 23.192V40.824C130.3 41.4427 130.474 41.9067 130.822 42.216L133.664 44.884V45H117.424V44.884L120.266 42.216C120.614 41.9067 120.788 41.4427 120.788 40.824V20.756C120.788 20.176 120.614 19.6927 120.266 19.306L117.424 16.406V16.29H130.3V22.438C131.885 18.03 134.959 15.826 139.522 15.826C143.891 15.826 146.694 18.1073 147.932 22.67C148.628 20.6593 149.826 19.016 151.528 17.74C153.229 16.464 155.259 15.826 157.618 15.826C160.518 15.826 162.741 16.87 164.288 18.958C165.834 21.046 166.608 24.0813 166.608 28.064ZM196.407 27.542C196.407 27.774 196.388 28.18 196.349 28.76C196.349 29.3013 196.349 29.5913 196.349 29.63L196.001 37.866C195.885 40.1087 196.407 41.23 197.567 41.23C198.302 41.23 198.843 40.882 199.191 40.186H199.307C199.307 40.9593 199.152 41.6553 198.843 42.274C197.799 44.4007 195.904 45.464 193.159 45.464C191.419 45.464 189.95 44.9807 188.751 44.014C187.552 43.0087 186.914 41.6167 186.837 39.838C186.257 41.5393 185.252 42.912 183.821 43.956C182.429 44.9613 180.805 45.464 178.949 45.464C176.706 45.464 174.831 44.7487 173.323 43.318C171.815 41.8487 171.061 39.838 171.061 37.286C171.061 34.5793 172.028 32.4527 173.961 30.906C175.933 29.3207 178.214 28.528 180.805 28.528C183.434 28.528 185.484 29.05 186.953 30.094L187.069 23.888V23.598C187.069 19.1513 185.658 16.928 182.835 16.928C182.255 16.928 181.888 16.9667 181.733 17.044C181.617 17.1213 181.462 17.3147 181.269 17.624L176.571 26.324H176.455L172.801 18.03C176.9 16.5607 180.805 15.826 184.517 15.826C188.616 15.826 191.612 16.7153 193.507 18.494C195.44 20.3113 196.407 23.3273 196.407 27.542ZM184.807 30.326C183.338 30.326 182.178 30.8867 181.327 32.008C180.515 33.1293 180.109 34.56 180.109 36.3C180.109 37.8467 180.418 39.0647 181.037 39.954C181.694 40.8047 182.526 41.23 183.531 41.23C184.846 41.23 185.948 40.5533 186.837 39.2V39.142L186.953 30.674C186.257 30.442 185.542 30.326 184.807 30.326ZM225.157 17.74L221.967 26.846H221.851L217.269 21.394C216.921 20.9687 216.573 20.872 216.225 21.104C215.491 21.6453 214.659 22.7667 213.731 24.468V40.128C213.731 40.708 214.021 41.1913 214.601 41.578L220.285 44.884V45H200.855V44.884L203.697 42.216C204.045 41.9067 204.219 41.4427 204.219 40.824V20.756C204.219 20.176 204.045 19.6927 203.697 19.306L200.855 16.406V16.29H213.731V23.714C214.273 21.4327 215.181 19.5573 216.457 18.088C217.733 16.58 219.319 15.826 221.213 15.826C222.876 15.826 224.191 16.464 225.157 17.74ZM246.718 25.512L254.49 40.824C254.838 41.4813 255.283 42.0807 255.824 42.622L258.26 44.884V45H245.964L239.526 31.312C239.333 30.848 238.985 30.616 238.482 30.616C238.25 30.616 238.037 30.6933 237.844 30.848V40.824C237.844 41.404 238.037 41.868 238.424 42.216L241.266 44.884V45H225.026V44.884L227.868 42.216C228.216 41.868 228.39 41.404 228.39 40.824V8.46C228.39 7.84133 228.216 7.358 227.868 7.01L225.026 4.342V4.226L237.844 2.718V30.21L247.24 23.192C247.665 22.8827 247.704 22.496 247.356 22.032L243.412 16.406V16.29H257.622V16.406L247.008 24.468C246.621 24.7387 246.525 25.0867 246.718 25.512Z" fill="#FBC05E"/>
</g>
<defs>
<clipPath id="clip0_1544_160">
<rect width="259" height="50" fill="white"/>
</clipPath>
</defs>
</svg>
