<svg width="258" height="44" viewBox="0 0 258 44" fill="none" xmlns="http://www.w3.org/2000/svg">
<path d="M46.226 37.838C46.226 38.418 46.4193 38.882 46.806 39.23L50.634 42.884V43H31.32V42.884L35.206 39.23C35.554 38.882 35.728 38.418 35.728 37.838V14.522C35.728 13.362 35.786 12.202 35.902 11.042L22.794 43.464H22.678L9.106 13.652C8.526 12.4533 8.15867 11.6027 8.004 11.1V33.256C8.004 33.836 8.25533 34.474 8.758 35.17L14.616 42.884V43H0.174V42.884L6.032 35.17C6.53467 34.474 6.786 33.836 6.786 33.256V10.288C6.786 9.592 6.612 9.03133 6.264 8.606L1.508 2.342V2.226H15.37L27.492 28.674L38.164 2.226H50.634V2.342L46.806 6.576C46.4193 6.96267 46.226 7.446 46.226 8.026V37.838ZM79.0567 27.34H61.6567V27.456C61.6567 31.0133 62.4301 33.6813 63.9767 35.46C65.5234 37.2 67.5147 38.07 69.9507 38.07C74.0494 38.07 76.9881 36.2913 78.7667 32.734H78.8827C77.4134 39.8873 73.1407 43.464 66.0647 43.464C62.0821 43.464 58.7181 42.2267 55.9727 39.752C53.2274 37.2773 51.8547 33.6427 51.8547 28.848C51.8547 23.7827 53.2274 20.0127 55.9727 17.538C58.7181 15.0633 62.1981 13.826 66.4127 13.826C68.0367 13.826 69.5641 14.0387 70.9947 14.464C72.4254 14.8893 73.7594 15.5467 74.9967 16.436C76.2727 17.3253 77.2781 18.6013 78.0127 20.264C78.7474 21.888 79.1147 23.8213 79.1147 26.064C79.1147 26.4507 79.0954 26.876 79.0567 27.34ZM66.2967 14.928C64.7887 14.928 63.6481 15.8173 62.8747 17.596C62.1014 19.336 61.6954 22.236 61.6567 26.296H70.1827C70.2214 25.7933 70.2407 25.2133 70.2407 24.556C70.2407 20.96 69.8927 18.466 69.1967 17.074C68.5394 15.6433 67.5727 14.928 66.2967 14.928ZM111.396 0.717998V38.65C111.396 39.2687 111.57 39.7327 111.918 40.042L114.818 42.884V43H101.942V37.548C100.241 41.492 97.3989 43.464 93.4163 43.464C90.0136 43.464 87.2489 42.1687 85.1223 39.578C83.0343 36.9873 81.9903 33.372 81.9903 28.732C81.9903 24.2853 83.1503 20.6893 85.4703 17.944C87.8289 15.1987 90.8256 13.826 94.4603 13.826C98.0563 13.826 100.55 15.3727 101.942 18.466V6.46C101.942 5.84133 101.749 5.358 101.362 5.01L98.5783 2.342V2.226L111.396 0.717998ZM97.8823 39.114C99.4676 39.114 100.821 38.3793 101.942 36.91V18.988C101.014 17.7893 99.7576 17.19 98.1723 17.19C96.3936 17.19 94.9243 18.0987 93.7643 19.916C92.6043 21.6947 92.0243 24.5367 92.0243 28.442C92.0243 32.154 92.5463 34.8607 93.5903 36.562C94.6729 38.2633 96.1036 39.114 97.8823 39.114Z" fill="white"/>
<path d="M165.608 26.064C165.608 27.572 165.569 29.9113 165.492 33.082C165.453 36.2527 165.434 38.1667 165.434 38.824C165.434 39.404 165.627 39.868 166.014 40.216L168.856 42.884V43H152.616V42.884L155.342 40.216C155.728 39.8293 155.922 39.3847 155.922 38.882C155.922 38.7273 155.941 37.0453 155.98 33.836C156.057 30.6267 156.096 28.4807 156.096 27.398C156.096 24.498 155.767 22.3133 155.11 20.844C154.491 19.3747 153.331 18.64 151.63 18.64C149.851 18.64 148.324 19.4713 147.048 21.134C147.396 22.6033 147.57 24.2467 147.57 26.064C147.57 27.456 147.531 29.776 147.454 33.024C147.415 36.2333 147.396 38.1667 147.396 38.824C147.396 39.404 147.57 39.868 147.918 40.216L150.818 42.884V43H134.52V42.884L137.304 40.216C137.652 39.868 137.826 39.4233 137.826 38.882C137.826 38.766 137.845 37.1033 137.884 33.894C137.961 30.646 138 28.4807 138 27.398C138 24.498 137.69 22.3133 137.072 20.844C136.453 19.3747 135.293 18.64 133.592 18.64C131.89 18.64 130.46 19.4907 129.3 21.192V38.824C129.3 39.4427 129.474 39.9067 129.822 40.216L132.664 42.884V43H116.424V42.884L119.266 40.216C119.614 39.9067 119.788 39.4427 119.788 38.824V18.756C119.788 18.176 119.614 17.6927 119.266 17.306L116.424 14.406V14.29H129.3V20.438C130.885 16.03 133.959 13.826 138.522 13.826C142.891 13.826 145.694 16.1073 146.932 20.67C147.628 18.6593 148.826 17.016 150.528 15.74C152.229 14.464 154.259 13.826 156.618 13.826C159.518 13.826 161.741 14.87 163.288 16.958C164.834 19.046 165.608 22.0813 165.608 26.064ZM195.407 25.542C195.407 25.774 195.388 26.18 195.349 26.76C195.349 27.3013 195.349 27.5913 195.349 27.63L195.001 35.866C194.885 38.1087 195.407 39.23 196.567 39.23C197.302 39.23 197.843 38.882 198.191 38.186H198.307C198.307 38.9593 198.152 39.6553 197.843 40.274C196.799 42.4007 194.904 43.464 192.159 43.464C190.419 43.464 188.95 42.9807 187.751 42.014C186.552 41.0087 185.914 39.6167 185.837 37.838C185.257 39.5393 184.252 40.912 182.821 41.956C181.429 42.9613 179.805 43.464 177.949 43.464C175.706 43.464 173.831 42.7487 172.323 41.318C170.815 39.8487 170.061 37.838 170.061 35.286C170.061 32.5793 171.028 30.4527 172.961 28.906C174.933 27.3207 177.214 26.528 179.805 26.528C182.434 26.528 184.484 27.05 185.953 28.094L186.069 21.888V21.598C186.069 17.1513 184.658 14.928 181.835 14.928C181.255 14.928 180.888 14.9667 180.733 15.044C180.617 15.1213 180.462 15.3147 180.269 15.624L175.571 24.324H175.455L171.801 16.03C175.9 14.5607 179.805 13.826 183.517 13.826C187.616 13.826 190.612 14.7153 192.507 16.494C194.44 18.3113 195.407 21.3273 195.407 25.542ZM183.807 28.326C182.338 28.326 181.178 28.8867 180.327 30.008C179.515 31.1293 179.109 32.56 179.109 34.3C179.109 35.8467 179.418 37.0647 180.037 37.954C180.694 38.8047 181.526 39.23 182.531 39.23C183.846 39.23 184.948 38.5533 185.837 37.2V37.142L185.953 28.674C185.257 28.442 184.542 28.326 183.807 28.326ZM224.157 15.74L220.967 24.846H220.851L216.269 19.394C215.921 18.9687 215.573 18.872 215.225 19.104C214.491 19.6453 213.659 20.7667 212.731 22.468V38.128C212.731 38.708 213.021 39.1913 213.601 39.578L219.285 42.884V43H199.855V42.884L202.697 40.216C203.045 39.9067 203.219 39.4427 203.219 38.824V18.756C203.219 18.176 203.045 17.6927 202.697 17.306L199.855 14.406V14.29H212.731V21.714C213.273 19.4327 214.181 17.5573 215.457 16.088C216.733 14.58 218.319 13.826 220.213 13.826C221.876 13.826 223.191 14.464 224.157 15.74ZM245.718 23.512L253.49 38.824C253.838 39.4813 254.283 40.0807 254.824 40.622L257.26 42.884V43H244.964L238.526 29.312C238.333 28.848 237.985 28.616 237.482 28.616C237.25 28.616 237.037 28.6933 236.844 28.848V38.824C236.844 39.404 237.037 39.868 237.424 40.216L240.266 42.884V43H224.026V42.884L226.868 40.216C227.216 39.868 227.39 39.404 227.39 38.824V6.46C227.39 5.84133 227.216 5.358 226.868 5.01L224.026 2.342V2.226L236.844 0.717998V28.21L246.24 21.192C246.665 20.8827 246.704 20.496 246.356 20.032L242.412 14.406V14.29H256.622V14.406L246.008 22.468C245.621 22.7387 245.525 23.0867 245.718 23.512Z" fill="#FBC05E"/>
</svg>
